<svg width="48" height="48" viewBox="0 0 48 48" fill="currentColor" xmlns="http://www.w3.org/2000/svg">
<path fill-rule="evenodd" clip-rule="evenodd" d="M8 0C3.58172 0 0 3.58172 0 8V40C0 44.4183 3.58172 48 8 48H40C44.4183 48 48 44.4183 48 40V8C48 3.58172 44.4183 0 40 0H8ZM24.12 15H19.752L16.56 21.48L13.368 15H9L14.64 25.344V31.8H18.48V25.344L24.12 15ZM25.2028 15V26.376C25.2028 28.152 25.8108 29.552 27.0268 30.576C28.2588 31.616 29.8108 32.136 31.6828 32.136C33.5548 32.136 35.1068 31.616 36.3388 30.576C37.5548 29.552 38.1628 28.152 38.1628 26.376V15H34.3228V26.04C34.3228 27.608 33.4428 28.392 31.6828 28.392C29.9228 28.392 29.0428 27.608 29.0428 26.04V15H25.2028Z" fill="currentColor"/>
</svg>
