<svg xmlns="http://www.w3.org/2000/svg" width="1024" height="1024" viewBox="0 0 1024 1024" version="1.1">
	<path d="M 0 512.001 L 0 1024.002 512.250 1023.751 L 1024.500 1023.500 1024.751 511.750 L 1025.002 0 512.501 0 L 0 0 0 512.001 M 0.496 512.500 C 0.496 794.100, 0.610 909.151, 0.750 768.168 C 0.890 627.186, 0.890 396.786, 0.750 256.168 C 0.610 115.551, 0.496 230.900, 0.496 512.500 M 333.248 433.252 L 256 510.505 332.758 587.258 L 409.516 664.011 423.253 650.248 L 436.990 636.484 373.995 573.495 L 311 510.506 374.742 446.758 L 438.483 383.011 425.005 369.505 C 417.593 362.077, 411.295 356, 411.011 356 C 410.728 356, 375.734 390.764, 333.248 433.252 M 600.747 370.752 L 587.010 384.516 650.005 447.505 L 713 510.494 649.254 574.246 L 585.507 637.998 599.256 651.747 L 613.004 665.495 690.503 587.996 L 768.002 510.497 691.243 433.743 L 614.484 356.989 600.747 370.752" stroke="none" fill="black" fill-rule="evenodd"/>
</svg>