<svg xmlns="http://www.w3.org/2000/svg" width="512" height="512" viewBox="0 0 512 512" version="1.1">
	<path d="M 0 256.002 L 0 512.004 256.250 511.752 L 512.500 511.500 512.752 255.750 L 513.004 0 256.502 0 L 0 0 0 256.002 M 0.492 256.500 C 0.492 397.300, 0.608 454.751, 0.750 384.170 C 0.892 313.588, 0.892 198.388, 0.750 128.170 C 0.608 57.951, 0.492 115.700, 0.492 256.500 M 67.748 155.250 C 69.364 158.137, 85.157 187.057, 102.843 219.515 L 135 278.530 135 319.265 L 135 360 159.500 360 L 184 360 184 319.281 L 184 278.561 216.656 218.531 C 234.617 185.514, 250.410 156.588, 251.751 154.250 L 254.190 150 226.757 150 L 199.323 150 179.674 190 C 168.867 212, 159.813 230, 159.553 230 C 159.294 230, 150.214 212, 139.376 190 L 119.670 150 92.239 150 L 64.809 150 67.748 155.250 M 267 219.894 C 267 293.936, 267.526 305.451, 271.434 317.002 C 274.849 327.096, 278.365 332.547, 286.915 341 C 302.814 356.721, 322.257 363.974, 348.500 363.974 C 375.041 363.974, 394.133 356.758, 410.606 340.500 C 416.833 334.355, 419.547 330.758, 422.313 324.985 C 429.578 309.822, 429.320 313.220, 429.737 227.250 L 430.112 150 405.556 150 L 381 150 380.956 223.250 C 380.921 281.823, 380.644 297.252, 379.573 300.252 C 377.418 306.291, 373.422 310.646, 367.258 313.672 C 361.835 316.336, 360.744 316.500, 348.500 316.500 C 336.256 316.500, 335.165 316.336, 329.742 313.672 C 326.575 312.117, 322.871 309.386, 321.511 307.604 C 315.889 300.232, 316 301.942, 316 222.874 L 316 150 291.500 150 L 267 150 267 219.894" stroke="none" fill="black" fill-rule="evenodd"/>
</svg>